# xmcd
#
# Track frame offsets:
# 150
# 17407
# 37525
# 52407
# 73145
# 90242
# 105912
# 121417
# 137697
# 152932
# 167900
# 195572
#
# Disc length: 3137 seconds
#
#
# Revision: 2
# Processed by: cddbd v1.5.1PL0 Copyright (c) Steve Scherf et al.
# Submitted via: FreeRIP 2.92 
#
DISCID=950c3f0c
DTITLE=Jan James - Soul Desire
DYEAR=1997
DGENRE=Blues
TTITLE0=Soul Desire
TTITLE1=We Live
TTITLE2=This Ain't No Livin'
TTITLE3=Too Much To Loose
TTITLE4=Lonesome Town
TTITLE5=Always Knockin'
TTITLE6=Tender Years
TTITLE7=Social Graces
TTITLE8=A Lot To Learn
TTITLE9=Cant Run Away
TTITLE10=Another Man
TTITLE11=Do Right
EXTD=
EXTT0=
EXTT1=
EXTT2=
EXTT3=
EXTT4=
EXTT5=
EXTT6=
EXTT7=
EXTT8=
EXTT9=
EXTT10=
EXTT11=
PLAYORDER=
